#tb 0: 1/22050
0,          0,          0,    57330,   229320, 0x062508b4
0,      58718,      58718,    57330,   229320, 0x0a966cbf
0,     117436,     117436,    57330,   229320, 0xee9bad45
0,     176154,     176154,    57330,   229320, 0xde88274e
0,     234872,     234872,    57330,   229320, 0x2fdeeaf6
0,     293590,     293590,    57330,   229320, 0xf793fe5b
